<?xml version="1.0" encoding="UTF-8" standalone="no"?>
<svg
   height="108.15119mm"
   version="1.2"
   viewBox="0 0 113.71318 108.15119"
   width="113.71318mm"
   id="svg1"
   xml:space="preserve"
   xmlns="http://www.w3.org/2000/svg"
   xmlns:svg="http://www.w3.org/2000/svg"><defs
     id="defs1" /><path
     style="fill:#019fff;fill-opacity:1"
     d="m 56.367607,108.12208 c -0.0224,-0.0201 -0.69417,-0.0616 -1.49278,-0.0922 -0.7986,-0.0306 -2.07495,-0.1111 -2.83633,-0.17887 -0.76138,-0.0678 -1.47067,-0.12399 -1.5762,-0.12495 -0.13358,-0.001 -0.22977,-0.0853 -0.31661,-0.27691 -0.14798,-0.32645 -0.82628,-3.03065 -1.31013,-5.2232 -0.18952,-0.85875 -0.35952,-1.57632 -0.3778,-1.59459 -0.0183,-0.0183 -0.44596,0.32884 -0.95041,0.77136 -0.50445,0.44253 -1.33628,1.11507 -1.84851,1.49454 -2.96025,2.19295 -3.44952,2.39722 -5.75734,2.40367 -1.47257,0.004 -2.02451,-0.063 -3.87836,-0.47171 -0.8539,-0.18825 -0.89903,-0.26175 -0.21511,-0.35036 1.4415,-0.18675 3.84764,-1.56451 7.18381,-4.11345 1.70209,-1.300449 4.8645,-4.275359 6.48775,-6.103089 2.25502,-2.53908 4.73354,-6.20799 6.77778,-10.033 0.88011,-1.6468 2.60953,-5.27013 2.95003,-6.18067 0.18976,-0.50742 0.19039,-0.50802 0.5597,-0.52929 0.69679,-0.0401 3.24818,-0.28386 3.7564,-0.35885 2.75365,-0.40632 6.05385,-1.63523 8.509,-3.16855 5.81188,-3.62968 9.59522,-9.12086 10.62186,-15.41664 0.32625,-2.0007 0.32559,-4.64175 -0.002,-6.731 -0.24985,-1.59501 -0.88614,-3.80054 -1.53466,-5.31942 -0.61454,-1.43932 -1.81859,-3.46179 -2.8053,-4.71213 -0.66831,-0.84688 -2.70938,-2.86289 -3.65556,-3.61069 -0.93972,-0.74269 -1.79353,-1.34376 -1.9088,-1.34376 -0.0931,0 -0.91813,1.29336 -1.5392,2.413 -0.34921,0.62955 -2.65191,5.26447 -2.9024,5.842 -0.0404,0.0931 -0.32704,0.72179 -0.637,1.397 -0.72426,1.57771 -1.70131,3.85911 -2.32065,5.41867 -0.26815,0.67522 -0.61246,1.51342 -0.76514,1.86267 -0.28596,0.65412 -0.57793,1.37933 -1.38056,3.429 -0.25528,0.65193 -0.86873,2.20605 -1.3632,3.45361 -0.49448,1.24755 -0.89905,2.28864 -0.89905,2.31354 0,0.0417 -0.19983,0.56948 -0.99004,2.61485 -0.27024,0.69948 -1.13943,2.79505 -2.54602,6.13833 -1.86114,4.42366 -4.07242,8.99468 -5.85705,12.10733 -0.65458,1.14168 -2.64001,4.1532 -3.37501,5.11927 -2.8529,3.74976 -6.18793,7.01005 -9.28755,9.07941 -2.03391,1.35788 -4.23342,2.504219 -6.14951,3.205019 -1.48972,0.54485 -3.19667,1.05363 -3.5349,1.05363 -0.26011,0 -1.17385,-0.4253 -2.57466,-1.19839 -1.433193,-0.79097 -4.120163,-2.492999 -4.122895,-2.611609 -5.36e-4,-0.0233 0.580038,-0.0483 1.290164,-0.0556 1.849339,-0.019 4.026101,-0.37946 5.896341,-0.97627 0.87988,-0.28078 2.7056,-1.03622 3.35727,-1.38916 4.2123,-2.28134 7.18842,-4.83988 10.6343,-9.14221 2.17512,-2.71573 4.58867,-6.74766 6.90564,-11.53616 1.13112,-2.33769 1.16656,-2.41712 2.97183,-6.6609 1.14526,-2.69225 4.14993,-10.22627 4.87922,-12.23433 0.13297,-0.36613 1.77153,-4.47202 1.99351,-4.99533 0.0889,-0.20955 0.3777,-0.9144 0.64181,-1.56634 0.26411,-0.65193 0.62811,-1.51876 0.80888,-1.92628 0.18077,-0.40752 0.32867,-0.75834 0.32867,-0.77959 0,-0.0213 0.26243,-0.62127 0.58317,-1.33338 0.32075,-0.71211 0.81928,-1.82815 1.10786,-2.48008 0.60496,-1.36667 2.51519,-5.13549 3.18632,-6.2865 0.25116,-0.43074 0.67257,-1.15464 0.93648,-1.60867 0.90774,-1.56167 2.67032,-4.05615 4.05313,-5.73616 0.95034,-1.1546 2.9436,-3.08645 4.00083,-3.87756 0.4793,-0.35866 0.90452,-0.65211 0.94492,-0.65211 0.12672,0 1.26501,0.66266 2.62862,1.53025 1.29684,0.82511 2.89074,2.02786 4.34833,3.28124 1.94408,1.67171 4.38832,4.52077 5.78707,6.74551 1.83709,2.92195 2.93006,5.31733 3.86319,8.46667 0.90003,3.03762 1.13225,4.2504 1.41506,7.39028 0.14669,1.62856 0.0598,5.28694 -0.16439,6.91838 -0.67132,4.88606 -2.25798,9.29015 -4.78319,13.27666 -2.6761,4.22473 -6.11806,7.74836 -10.33907,10.58441 -4.70713,3.16266 -8.96683,4.83862 -14.77384,5.81269 -2.18808,0.36702 -3.27952,0.45394 -5.64012,0.44913 l -2.12596,-0.004 -0.32638,0.56172 c -0.32148,0.55328 -0.79204,1.26533 -1.93786,2.93239 -0.50552,0.73547 -1.25986,1.6961 -3.37044,4.29214 -0.28856,0.35492 -0.47241,0.65657 -0.44905,0.73675 0.0218,0.0747 0.2884,1.14542 0.59254,2.379439 0.64021,2.59761 1.01715,3.96649 1.11956,4.06577 0.16705,0.16194 3.1585,0.2769 5.78722,0.2224 2.83896,-0.0589 2.9217,-0.0639 3.04448,-0.18693 0.0661,-0.0662 1.00102,-3.68948 1.61534,-6.260239 0.089,-0.37253 0.22951,-0.94345 0.31219,-1.2687 l 0.15032,-0.59137 0.381,-0.0573 c 0.20955,-0.0315 0.85725,-0.1213 1.43934,-0.19958 2.10734,-0.28343 5.67684,-1.11576 7.61366,-1.77534 0.34576,-0.11775 0.71116,-0.21409 0.81199,-0.21409 0.12487,0 0.36989,0.21907 0.76834,0.68697 1.71391,2.01264 4.23457,4.89061 4.53089,5.173159 0.23083,0.2201 0.25449,0.22491 0.56056,0.1139 1.85379,-0.672389 7.47884,-3.848489 7.54155,-4.258229 0.029,-0.18955 -0.59641,-2.7724 -1.38659,-5.72624 -0.29746,-1.11197 -0.52007,-2.05537 -0.49468,-2.09644 0.0254,-0.0411 0.41525,-0.36722 0.86638,-0.72479 1.99862,-1.58412 4.04873,-3.50056 5.66008,-5.29106 0.6,-0.6667 1.0387,-1.08527 1.13747,-1.08527 0.16193,0 0.87522,0.23803 5.17546,1.72712 1.2911,0.44708 2.402353,0.81288 2.469453,0.81288 0.12549,0 1.41391,-1.79168 2.31362,-3.21734 0.64458,-1.02138 2.22515,-3.82019 2.22515,-3.94019 0,-0.0499 -0.67628,-0.75612 -1.50284,-1.56933 -0.82656,-0.81321 -2.14164,-2.10652 -2.9224,-2.87402 l -1.419573,-1.39545 0.28437,-0.67734 c 0.921833,-2.19571 1.904993,-5.74379 2.321973,-8.37963 0.0661,-0.4176 0.0696,-0.42153 0.44603,-0.49145 0.20869,-0.0388 0.95094,-0.20055 1.64944,-0.35953 0.6985,-0.15897 2.27176,-0.50136 3.49614,-0.76086 1.22438,-0.2595 2.31629,-0.5061 2.42647,-0.54799 0.21627,-0.0822 0.21013,-0.0458 0.34982,-2.07587 0.0814,-1.18351 0.0393,-4.28858 -0.0741,-5.45806 l -0.10232,-1.0554 -0.67734,-0.19371 c -0.37253,-0.10654 -1.19168,-0.30612 -1.82033,-0.44351 -1.31291,-0.28693 -4.40103,-0.96828 -5.0599,-1.11638 -0.24506,-0.0551 -0.47996,-0.1416 -0.52199,-0.19225 -0.042,-0.0506 -0.17668,-0.60642 -0.29922,-1.23505 -0.47886,-2.45659 -1.34788,-5.43797 -2.245303,-7.70302 l -0.18386,-0.46404 0.966203,-0.93296 c 0.5314,-0.51312 1.90507,-1.8283 3.05259,-2.92262 1.14752,-1.09432 2.08724,-2.02936 2.08827,-2.07787 0.002,-0.0764 -1.34738,-2.4497 -2.25986,-3.9758 -0.39281,-0.65696 -2.12152,-3.13815 -2.27543,-3.26588 -0.0916,-0.0761 -0.23714,-0.0495 -0.648,0.11844 -0.29141,0.11909 -1.215633,0.45561 -2.053833,0.74782 -0.8382,0.29222 -1.53678,0.56139 -1.5524,0.59816 -0.0156,0.0368 -0.0584,0.0483 -0.0952,0.0256 -0.0367,-0.0227 -0.30245,0.0545 -0.59051,0.17155 -0.28807,0.11705 -1.08138,0.4029 -1.76293,0.63521 l -1.23918,0.42239 -2.03657,-2.06266 c -2.12351,-2.15069 -2.90703,-2.87077 -4.5351,-4.16789 -0.53598,-0.42703 -1.02012,-0.83137 -1.07586,-0.89854 -0.11999,-0.14457 -0.0501,-0.44956 0.56895,-2.484185 0.22671,-0.745067 0.54793,-1.849967 0.71383,-2.455333 0.16589,-0.605367 0.33939,-1.234017 0.38555,-1.397 0.41227,-1.455564 0.50871,-1.841795 0.50647,-2.02834 -0.002,-0.181349 -0.18588,-0.338293 -1.16417,-0.9946 -1.84086,-1.234984 -6.09007,-3.5870822 -6.46454,-3.5783672 -0.17346,0.004 -0.27307,0.101498 -1.51162,1.4789742 -0.62806,0.6985 -1.18051,1.31215 -1.22767,1.363668 -0.0472,0.05152 -0.69535,0.810756 -1.44042,1.687196 -0.74506,0.876441 -1.44991,1.703141 -1.56633,1.837112 l -0.21167,0.243584 -0.635,-0.292129 c -0.94704,-0.435684 -2.7258,-1.010489 -4.48733,-1.450081 -0.86148,-0.214984 -1.77588,-0.447193 -2.032,-0.516022 -0.72014,-0.193529 -1.67368,-0.378376 -2.35487,-0.456499 -0.34056,-0.03906 -0.63835,-0.09016 -0.66174,-0.113556 -0.0234,-0.0234 -0.16823,-0.379756 -0.32185,-0.791907 -0.15361,-0.412152 -0.58437,-1.416116 -0.95723,-2.2310332 -0.37287,-0.814917 -0.85867,-1.881717 -1.07956,-2.370666 -0.85771,-1.89852 -2.47917,-4.99728 -3.48575,-6.66157594 -0.20221,-0.33435 -0.36766,-0.63422 -0.36766,-0.666378 0,-0.08773 2.11667,0.03249 3.937,0.223618 2.02807,0.212937 2.47731,0.298913 2.53072,0.484327 0.0502,0.174433 0.17436,0.70180194 0.73105,3.10634194 0.23719,1.024467 0.68181,2.820752 0.98806,3.991745 l 0.55681,2.1290772 0.51768,0.09848 c 1.02841,0.195632 3.31691,0.776006 4.48707,1.137941 0.6574,0.203335 1.30957,0.393739 1.44927,0.423121 0.27978,0.05884 0.009,0.342796 3.3819,-3.5420712 1.81781,-2.093536 2.61485,-2.965624 2.73884,-2.996734 0.0624,-0.01564 0.4252,0.09525 0.80632,0.24644 0.78802,0.312603 3.78509,1.787134 4.62318,2.274562 0.3064,0.178204 0.9516,0.542386 1.43378,0.809294 0.97103,0.537509 2.87071,1.7770602 4.51382,2.9452962 0.85197,0.605741 1.05811,0.79047 1.00248,0.898363 -0.0385,0.0747 -0.15193,0.459672 -0.25203,0.855489 -0.1001,0.395816 -0.3095,1.138766 -0.46534,1.650999 -0.38703,1.272184 -0.66502,2.235555 -0.89173,3.090334 -0.10498,0.395816 -0.30329,1.100666 -0.44068,1.566333 -0.13739,0.465666 -0.2687,0.92359 -0.2918,1.017608 -0.0329,0.134098 0.17374,0.365492 0.95896,1.073564 1.01191,0.91248 3.29604,3.18185 3.70982,3.68584 l 0.2247,0.27368 0.31122,-0.13379 c 0.17118,-0.0736 0.99703,-0.38011 1.83523,-0.68118 0.8382,-0.30108 1.6002,-0.58024 1.69333,-0.62037 0.20233,-0.0872 1.19708,-0.41895 3.078643,-1.02681 l 1.38531,-0.44754 0.24814,0.29216 c 0.87018,1.02456 2.95565,4.01851 4.11224,5.90362 0.66828,1.08923 2.86125,5.54626 2.79861,5.68797 -0.0256,0.058 -3.584,3.47127 -4.22889,4.05644 -0.2174,0.19727 -0.74621,0.6933 -1.17512,1.10227 l -0.77984,0.7436 0.44286,1.3898 c 0.24358,0.76439 0.49946,1.56125 0.56863,1.7708 0.0692,0.20955 0.25032,0.93207 0.40255,1.60561 l 0.27679,1.2246 0.28738,0.0755 c 0.38668,0.10153 1.58646,0.36263 4.5207,0.98381 3.19285,0.67594 3.5122,0.76389 3.55396,0.97885 0.0181,0.0931 0.1152,1.12094 0.21579,2.284 0.21419,2.47633 0.25565,6.0644 0.093,8.04534 -0.0895,1.09012 -0.3358,3.19517 -0.37767,3.22813 -0.0542,0.0427 -1.15845,0.33265 -1.74938,0.45937 -0.39582,0.0849 -1.69122,0.37037 -2.87867,0.63441 -1.18745,0.26405 -2.42043,0.53308 -2.73996,0.59784 -1.03564,0.20989 -0.98552,0.14682 -1.29188,1.62609 -0.30997,1.49674 -0.62787,2.68526 -1.02331,3.82582 l -0.27887,0.80434 1.58751,1.56354 c 0.87313,0.85996 2.2489,2.21251 3.05726,3.00567 l 1.46975,1.44212 -0.55598,1.10066 c -0.61195,1.21145 -1.14341,2.16729 -2.2361,4.02167 -1.25833,2.13546 -4.08541,6.20605 -4.39187,6.32365 -0.19986,0.0767 -5.576413,-1.69299 -7.327403,-2.4118 l -0.81918,-0.33629 -0.7711,0.87446 c -0.78618,0.89157 -2.28202,2.33242 -3.3475,3.22444 -0.32576,0.27273 -0.64404,0.54474 -0.70729,0.60446 -0.13989,0.13208 -0.0759,0.40963 1.05902,4.59041 0.4361,1.60655 0.81527,3.05696 0.8426,3.22314 l 0.0497,0.30213 -0.8762,0.59508 c -3.46201,2.351239 -6.80141,4.218959 -9.93553,5.556919 -0.60537,0.25843 -1.21497,0.53097 -1.35467,0.60565 l -0.254,0.13578 -0.40654,-0.44685 c -0.2236,-0.24577 -1.38565,-1.56879 -2.58234,-2.94006 -1.19668,-1.371259 -2.29009,-2.620949 -2.42979,-2.777079 l -0.254,-0.28386 -0.55666,0.1724 c -1.03737,0.32127 -3.38643,0.85426 -4.82778,1.09539 -0.78913,0.13202 -1.44539,0.25511 -1.45834,0.27353 -0.013,0.0184 -0.16792,0.700249 -0.34437,1.515169 -0.17644,0.81491 -0.45178,2.05316 -0.61185,2.75166 -0.16007,0.6985 -0.36957,1.6129 -0.46554,2.032 -0.096,0.4191 -0.25207,1.0353 -0.34688,1.36932 l -0.17237,0.60732 -0.39177,0.0502 c -1.56676,0.20074 -7.41435,0.48012 -7.54766,0.3606 z m 4.5056,-21.602799 c 3.68438,-0.13768 8.03713,-1.07951 11.24396,-2.43293 2.82629,-1.19281 5.68441,-2.89197 8.04333,-4.7818 1.34823,-1.08012 3.74917,-3.44591 4.71154,-4.64257 2.39924,-2.98333 3.78306,-5.32489 5.12874,-8.67833 0.62024,-1.54563 0.79302,-2.07947 1.20574,-3.72534 0.46374,-1.84933 0.52244,-2.15149 0.6826,-3.51366 0.43734,-3.71949 0.13728,-7.54 -0.90101,-11.47234 -0.38337,-1.45192 -1.50139,-4.37933 -2.22216,-5.81846 -1.79357,-3.58117 -4.19857,-6.70285 -7.03912,-9.13672 -1.3801,-1.18252 -3.03584,-2.40148 -3.26199,-2.40148 -0.27299,0 -1.34507,1.07978 -3.69714,3.72371 l -0.35513,0.3992 0.5668,0.41282 c 3.0363,2.21145 5.22746,4.42126 6.99618,7.05573 1.3408,1.99709 2.27706,3.91318 2.98254,6.10387 0.37141,1.15331 0.80247,3.43915 0.96809,5.13362 0.14688,1.50274 0.0546,5.02886 -0.16813,6.42338 -0.19712,1.23421 -0.65786,3.1681 -0.96824,4.064 -0.58072,1.67625 -1.66858,3.88304 -2.67117,5.41867 -2.40013,3.67618 -5.71548,6.63046 -10.00147,8.91225 -2.8128,1.49748 -7.05063,2.75633 -9.50365,2.82308 -0.31423,0.009 -0.60287,0.0576 -0.64144,0.10911 -0.0386,0.0515 -0.26462,0.5317 -0.50235,1.06722 -0.63031,1.41981 -2.20699,4.74836 -2.30538,4.86691 -0.11802,0.14221 -0.0208,0.21092 0.24165,0.17071 0.12256,-0.0188 0.7828,-0.0551 1.46721,-0.0806 z m -38.328372,7.93684 c -0.804592,-0.0754 -2.27506,-0.40159 -3.195042,-0.70883 -2.432392,-0.81234 -5.028851,-2.57476 -7.176624,-4.87134 -0.710759,-0.76001 -1.946048,-2.40323 -1.946772,-2.58967 -8.07e-4,-0.20742 1.290452,-3.53541 2.471893,-6.37086 1.521282,-3.65108 4.437458,-9.7865 5.957802,-12.53477 0.309128,-0.5588 0.858575,-1.5494 1.220994,-2.20134 0.362419,-0.65193 0.771414,-1.39488 0.908878,-1.651 0.137463,-0.25611 0.58582,-1.03716 0.996348,-1.73566 0.410527,-0.6985 0.944326,-1.6129 1.186218,-2.032 1.201316,-2.08139 3.876207,-6.23611 3.944157,-6.12618 0.0308,0.0498 0.0626,0.45795 0.0706,0.90702 0.0532,2.95757 0.64717,7.53877 1.65909,12.79682 0.20236,1.05149 0.94863,4.55667 1.18972,5.588 1.18901,5.0864 3.60973,13.42237 4.9105,16.90976 l 0.19647,0.52676 -0.77846,0.58072 c -3.21237,2.39639 -6.62976,3.59586 -10.134136,3.55698 -0.62865,-0.007 -1.2954,-0.027 -1.481666,-0.0444 z m 14.584012,-6.00712 c -0.0246,-0.0856 -0.20496,-0.65099 -0.40086,-1.25636 -1.52687,-4.71829 -3.69018,-12.68868 -4.53856,-16.72166 -0.0354,-0.16837 0.0373,-0.11641 0.3557,0.254 0.42581,0.49544 3.3448,3.42662 4.26604,4.28386 1.06952,0.99522 2.90941,2.57413 2.99928,2.57385 0.0501,-1.6e-4 0.22489,-0.27638 0.38846,-0.61383 0.16357,-0.33745 0.78162,-1.52795 1.37343,-2.64555 1.05449,-1.99134 2.32741,-4.62565 3.08884,-6.39233 0.21073,-0.48895 0.51661,-1.1938 0.67972,-1.56633 0.4026,-0.9195 1.52687,-3.66226 2.65495,-6.477 2.07121,-5.16802 2.8111,-7.00093 2.95634,-7.32367 0.0838,-0.18627 0.55148,-1.34832 1.03922,-2.58233 0.48774,-1.23402 1.11506,-2.75802 1.39404,-3.38667 0.27899,-0.62865 0.71865,-1.66258 0.97702,-2.29761 0.25837,-0.63504 0.54378,-1.32084 0.63425,-1.524 0.0905,-0.20317 0.38428,-0.86469 0.65292,-1.47006 0.57946,-1.30579 2.96203,-6.14371 3.64844,-7.40833 1.15773,-2.13298 2.73657,-4.68993 3.92093,-6.35 1.31611,-1.84473 3.68415,-4.54049 4.8347,-5.50379 l 0.40036,-0.3352 1.34472,0.41678 c 1.89788,0.58822 3.20738,1.10174 3.20738,1.25776 0,0.0434 -0.20386,0.26214 -0.45301,0.48615 -0.66966,0.60208 -2.70342,2.6947 -3.32799,3.4243 -0.8211,0.95919 -2.92941,3.9211 -3.69396,5.18955 -0.23033,0.38213 -0.615,1.01295 -0.85483,1.40182 -0.83974,1.36157 -3.09534,5.6367 -3.73669,7.0823 -0.1033,0.23283 -0.3011,0.65193 -0.43956,0.93133 -0.13846,0.2794 -0.37878,0.8128 -0.53403,1.18533 -0.15525,0.37254 -0.44152,1.02024 -0.63614,1.43934 -0.35573,0.76605 -1.83791,4.2422 -2.11188,4.953 -0.0808,0.20955 -0.72289,1.8117 -1.42693,3.56033 -0.70404,1.74864 -1.4866,3.71079 -1.73902,4.36034 -0.60277,1.55112 -1.88867,4.7463 -2.05304,5.10133 -0.0712,0.15382 -0.20021,0.47767 -0.28666,0.71967 -0.36797,1.02997 -1.69499,4.28615 -2.37038,5.81633 -0.19527,0.44238 -0.46107,1.05198 -0.59068,1.35466 -0.12962,0.30269 -0.43078,0.96285 -0.66927,1.46704 -0.23848,0.50418 -0.4336,0.9321 -0.4336,0.95092 0,0.0677 -1.65642,3.39871 -2.08146,4.18575 -0.83748,1.55079 -0.99439,1.82954 -1.66815,2.96362 -1.6571,2.78924 -4.23271,6.19472 -6.00891,7.94502 -0.58461,0.57609 -0.72468,0.67737 -0.76113,0.55034 z M 7.4741689,82.425641 c -0.632481,-0.9966 -1.447059,-2.42208 -1.758116,-3.07664 -0.07432,-0.1564 -0.389813,-0.81776 -0.70109,-1.46969 -0.625508,-1.31005 -1.635633,-3.76319 -2.106036,-5.11463 -0.949227,-2.72706 -2.05478299,-7.27807 -2.45970699,-10.12537 -0.475407,-3.34291 -0.593808,-8.78246 -0.257086,-11.811 0.0699,-0.62865 0.151147,-1.39376 0.180559,-1.70025 l 0.05348,-0.55725 0.348999,-0.13569 c 0.40271999,-0.15656 2.18978299,-0.91063 3.90499899,-1.64773 1.757676,-0.75536 3.437446,-1.46241 3.474304,-1.46241 0.01784,0 0.938866,-0.35835 2.0467301,-0.79633 2.453316,-0.96989 5.01081,-1.91568 5.866632,-2.16955 0.34925,-0.1036 0.92075,-0.29568 1.27,-0.42684 0.908267,-0.34111 5.1433,-1.71004 6.096,-1.97046 2.550932,-0.69731 3.85348,-1.04118 6.096,-1.60936 3.44937,-0.87395 5.42173,-1.33668 5.5722,-1.3073 0.0857,0.0167 -0.20238,0.43859 -0.88437,1.29484 -2.38019,2.9884 -3.47454,4.41867 -4.53468,5.92667 -0.16368,0.23283 -0.63495,0.89958 -1.04726,1.48166 -1.85269,2.61557 -5.596217,8.33758 -6.868556,10.49867 -0.233037,0.39582 -0.615605,1.02447 -0.850151,1.397 -0.47584,0.75579 -1.403974,2.33461 -2.01579,3.429 -0.795466,1.4229 -1.626703,2.93634 -2.069339,3.76767 -0.247942,0.46566 -0.673748,1.25778 -0.946235,1.76025 -0.649612,1.1979 -3.006647,5.98985 -3.819278,7.76475 -1.155974,2.5248 -2.7770051,6.33769 -3.5095691,8.25499 -0.16013,0.4191 -0.316831,0.78682 -0.348225,0.81714 -0.03139,0.0303 -0.36188,-0.42514 -0.734413,-1.01214 z m -6.435929,-37.46049 c 0.02436,-0.10478 0.140808,-0.6477 0.258767,-1.2065 0.597824,-2.83205 2.09744,-7.46602 3.192018,-9.86367 0.15944,-0.34925 0.381436,-0.84455 0.493325,-1.10067 1.329051,-3.04223 3.675467,-6.98727 5.8938411,-9.90933 0.503788,-0.66359 0.990575,-1.30579 1.081749,-1.4271 0.265875,-0.35376 1.607217,-1.910528 2.633881,-3.056898 0.825225,-0.921444 3.176687,-3.237132 4.123823,-4.061086 0.441218,-0.383834 0.283691,-0.416378 3.659857,0.756093 0.372534,0.129373 0.772584,0.27694 0.889,0.327926 0.116417,0.05099 0.821267,0.325247 1.566334,0.609468 2.527552,0.964183 7.230652,3.044496 9.948332,4.400426 1.33748,0.667311 4.382,2.268371 4.91067,2.582441 0.25611,0.15216 0.92286,0.53535 1.48166,0.85155 2.93807,1.66252 5.89033,3.54926 9.31334,5.95202 0.6985,0.49031 1.48856,1.03911 1.75569,1.21956 0.60787,0.41062 0.65298,0.48369 0.30247,0.4899 -1.82223,0.0323 -7.07298,0.5924 -9.53678,1.01729 -2.06569,0.35623 -3.96715,0.6837 -4.37472,0.75342 -1.37697,0.23552 -2.57826,0.48518 -3.89466,0.8094 -0.2794,0.0688 -1.29721,0.29704 -2.26181,0.50718 -0.96459,0.21014 -1.81929,0.4072 -1.89935,0.43792 -0.08,0.0307 -1.29108,0.34847 -2.69119,0.70611 -1.40011,0.35764 -3.288602,0.86928 -4.196652,1.13697 -0.90805,0.2677 -1.9177,0.55939 -2.243667,0.64821 -0.560842,0.15283 -1.578228,0.47815 -3.894666,1.24537 -1.243967,0.41201 -4.42595,1.53984 -5.291667,1.87559 -0.34925,0.13545 -1.016,0.38287 -1.481666,0.54984 -0.465667,0.16696 -1.2086171,0.45259 -1.6510001,0.63473 -0.442383,0.18214 -1.280583,0.52174 -1.862667,0.75466 -0.582083,0.23293 -1.572683,0.63885 -2.201333,0.90205 -0.62865,0.2632 -1.4478,0.60375 -1.820333,0.75676 -0.372533,0.15302 -0.995035,0.41606 -1.383336,0.58454 -0.388302,0.16848 -0.741452,0.30633 -0.78478,0.30633 -0.04333,0 -0.05884,-0.0857 -0.03448,-0.1905 z M 55.727737,30.099641 c -0.55527,-0.41035 -1.39057,-1.00656 -1.85624,-1.32492 -0.46566,-0.31836 -1.18956,-0.83214 -1.60866,-1.14174 -2.54212,-1.8779 -7.94344,-5.27349 -11.94994,-7.512441 -3.59784,-2.010575 -9.57751,-4.842778 -13.13701,-6.222196 -2.511793,-0.973398 -2.855204,-1.102513 -3.699719,-1.391016 -1.046454,-0.357489 -1.735666,-0.639672 -1.735666,-0.71063 0,-0.125923 3.201532,-2.3662902 4.794835,-3.3553262 0.98671,-0.612498 2.73905,-1.639722 2.79721,-1.639722 0.0194,0 0.46197,-0.232843 0.98341,-0.517428 1.16483,-0.635714 3.2289,-1.605483 4.25154,-1.997511 0.4191,-0.160661 1.18803,-0.459318 1.70873,-0.66368 2.32928,-0.914184 4.57729,-1.585027 7.35061,-2.193534 3.715,-0.81512794 7.45888,-1.34223594 10.03088,-1.41226694 L 54.290597,-1.4010689e-7 54.551257,0.37399286 c 0.5178,0.74294794 1.47467,2.35173794 2.28711,3.84532594 0.81944,1.506464 2.80083,5.496086 3.25876,6.5616662 0.13007,0.302683 0.3768,0.874183 0.54828,1.27 1.27725,2.948224 3.12728,7.72885 3.29492,8.514367 0.0493,0.230764 9.9e-4,0.319466 -0.43759,0.804329 -1.0015,1.10718 -2.59691,3.12557 -3.34195,4.22797 -0.1731,0.25611 -0.54826,0.78951 -0.8337,1.18533 -0.67376,0.93428 -1.08854,1.57403 -1.89383,2.921 -0.36191,0.60537 -0.66656,1.10991 -0.67699,1.12121 -0.0104,0.0113 -0.47327,-0.3152 -1.02853,-0.72555 z"
     id="path4" /></svg>
